<svg width="50" height="50" viewBox="0 0 50 50" fill="none" xmlns="http://www.w3.org/2000/svg">
<circle cx="25" cy="25" r="25" fill="#FFC107"/>
<path d="M16.504 34.144C14.328 34.144 12.632 33.52 11.416 32.272C10.2 31.024 9.592 29.208 9.592 26.824V17.2H11.368V26.752C11.368 28.704 11.808 30.16 12.688 31.12C13.568 32.08 14.84 32.56 16.504 32.56C18.184 32.56 19.464 32.08 20.344 31.12C21.224 30.16 21.664 28.704 21.664 26.752V17.2H23.392V26.824C23.392 29.208 22.784 31.024 21.568 32.272C20.368 33.52 18.68 34.144 16.504 34.144ZM40.2158 34L36.3758 28.6C35.9438 28.648 35.4958 28.672 35.0318 28.672H30.5198V34H28.7438V17.2H35.0318C37.1758 17.2 38.8558 17.712 40.0718 18.736C41.2878 19.76 41.8958 21.168 41.8958 22.96C41.8958 24.272 41.5598 25.384 40.8878 26.296C40.2318 27.192 39.2878 27.84 38.0558 28.24L42.1598 34H40.2158ZM34.9838 27.16C36.6478 27.16 37.9198 26.792 38.7998 26.056C39.6798 25.32 40.1198 24.288 40.1198 22.96C40.1198 21.6 39.6798 20.56 38.7998 19.84C37.9198 19.104 36.6478 18.736 34.9838 18.736H30.5198V27.16H34.9838Z" fill="black"/>
</svg>
